<?xml version="1.0" encoding="utf-8"?>
<!-- Generator: Adobe Illustrator 24.1.0, SVG Export Plug-In . SVG Version: 6.00 Build 0)  -->
<svg version="1.1" id="f6ab8ba1-7e68-4bec-bb42-3789208a6270"
	 xmlns="http://www.w3.org/2000/svg" xmlns:xlink="http://www.w3.org/1999/xlink" x="0px" y="0px" viewBox="0 0 1080 589.3"
	 style="enable-background:new 0 0 1080 589.3;" xml:space="preserve">
<style type="text/css">
	.st0{fill:#F67C92;}
	.st1{fill:#F2F2F2;}
	.st2{opacity:0.3;fill:#F67C92;enable-background:new    ;}
	.st3{fill:#2F2E41;}
	.st4{fill:#FFB8B8;}
	.st5{opacity:0.1;enable-background:new    ;}
	.st6{fill:#9F616A;}
	.st7{fill:none;}
	.st8{font-family:'Cochin';}
	.st9{font-size:16px;}
	.st10{letter-spacing:1;}
</style>
<path class="st0" d="M1080,552.5c0-32.2-16.3-58.2-36.5-58.2c-12.7,0-23.8,10.3-30.3,25.9c-2.2-0.9-4.6-1.4-7-1.4
	c-6.1,0-11.7,3.1-16.3,8.4c-5.9-19.5-18.4-33-32.8-33c-13.5,0-25.3,11.8-31.6,29.2c-3.5-3-7.9-4.6-12.5-4.7c-15.5,0-28,20-28,44.7
	c-0.1,8.2,1.4,16.4,4.4,24.1h183.2C1077.3,577.8,1080,565.6,1080,552.5z"/>
<path class="st1" d="M949.3,216.2C920.6,154,864.4,101.1,796.5,92.4c-17.9-2.3-36.7-1.4-53.3,5.7c-21.9,9.3-38,28-54.2,45.3
	c-34.5,36.6-73,69.1-115,96.8c-20.7,13.7-42.9,26.5-67.4,30c-49.2,7-98-26.6-120.4-70.9c-14-27.7-20.5-60.3-31.9-89.1
	c-13.1,0-28.6,0-45.4,0.1c-46.3,0.2-83.9,0.9-83.9,0.9s44.8-59.3,83.8-37.3c12.5,7,25.5,13.3,37.5,18.6
	C339.4,79.3,330.9,67.5,319,58c-23.3-18.7-54.9-23.9-84.8-22.6c-31.4,1.5-63,9.9-88.5,28.2c-45.4,32.7-64.1,90.2-80.2,143.7
	l38.8,19.4c16.6-14.4,41-28.6,63.4-16c39,22,83.8,36.6,83.8,36.6s-37.4-0.3-83.6-0.1c-7.8,0-15.3,0.1-22.4,0.1L576,463.2
	c142,2,249.1-5.7,384,0c7,0.3,22.9-36.6,22.9-46.3C983.3,348.5,978,278.3,949.3,216.2z M811.4,234.8c-46.3,0.2-83.9,0.9-83.9,0.9
	s44.8-59.3,83.8-37.3s83.8,36.6,83.8,36.6S857.7,234.6,811.4,234.8L811.4,234.8z"/>
<path class="st2" d="M932,437.7c0-23.4-14.5-42.3-32.3-42.3c-11.2,0-21.1,7.5-26.9,18.9c-2-0.7-4.1-1-6.2-1
	c-5.4,0.1-10.6,2.3-14.5,6.1c-5.2-14.2-16.3-24-29.1-24c-12,0-22.5,8.6-28,21.3c-3.3-2.2-7.1-3.4-11.1-3.4
	c-13.7,0-24.8,14.6-24.8,32.5c0,6.1,1.3,12,3.9,17.5h162.6C929.8,455.5,932.1,446.7,932,437.7z"/>
<polygon class="st3" points="1080,589.2 82,589.2 82,587.2 1079,587.2 "/>
<polygon class="st3" points="998,465.2 0,465.2 0,463.2 997,463.2 "/>
<path class="st4" d="M423.6,281.1c0,0,6.3-46.1,16.8-33.5s0,31.4,0,31.4l-8.4,10.5l-8.4-6.3V281.1z"/>
<path class="st0" d="M398.5,295.8c0,0,21-23,25.1-18.9s16.8,6.3,14.7,14.7s-46.1,35.6-46.1,35.6L398.5,295.8z"/>
<path class="st5" d="M398.5,295.8c0,0,21-23,25.1-18.9s16.8,6.3,14.7,14.7s-46.1,35.6-46.1,35.6L398.5,295.8z"/>
<path class="st4" d="M279.1,293.7v16.8c0,0-2.1,37.7,10.5,35.6s6.3-33.5,6.3-33.5l-2.1-18.9H279.1z"/>
<path class="st4" d="M285.3,415.2c0,0-18.9,29.3-25.1,31.4s-39.8,21-44,39.8l-29.3,37.7l14.7,18.9c0,0,67-71.2,85.9-77.5
	s37.7-37.7,37.7-37.7L285.3,415.2z"/>
<path class="st4" d="M434.1,367c0,0,39.8,6.3,33.5,31.4s-67,77.5-67,77.5l-2.1,12.6l-23,4.2L365,482.3l2.1-6.3
	c0,0,25.1-23,27.2-31.4s25.1-41.9,35.6-44l-14.7-8.4L434.1,367z"/>
<path class="st3" d="M193.2,524.2c0,0,8.4-12.6-4.2-10.5c-12.6,2.1-21,4.2-21,12.6s10.5,67,23,62.9c12.6-4.2,2.1-23,2.1-23
	s6.3-16.8,10.5-18.9c4.2-2.1,4.2-12.6,0-12.6S191.1,528.4,193.2,524.2z"/>
<path class="st3" d="M371.3,478.1c0,0,0-10.5-8.4,0s-12.6,18.9-4.2,25.1s37.7,21,37.7,21s31.4,6.3,27.2-8.4c0,0-21-10.5-21-18.9
	s0-23-6.3-18.9S371.3,484.4,371.3,478.1z"/>
<path class="st3" d="M331.4,320.9c0,0-29.3,4.2-27.2,46.1c0,0-37.7,37.7-27.2,50.3s33.5,35.6,41.9,29.3s33.5-54.5,33.5-54.5
	s58.7,21,69.1,10.5s21-35.6,21-35.6l-52.4-27.2L331.4,320.9z"/>
<circle class="st4" cx="413.2" cy="176.4" r="25.1"/>
<path class="st4" d="M394.3,178.5c0,0-14.7,23-18.9,25.1s29.3,23,29.3,23s0-27.2,10.5-33.5L394.3,178.5z"/>
<path class="st0" d="M392.2,201.5c0,0-33.5-10.5-39.8,6.3s-21,48.2-18.9,69.1s6.3,16.8,0,23s-10.5,2.1-8.4,10.5s4.2,8.4,2.1,12.6
	s25.1,18.9,48.2,21l23,2.1c0,0,0-37.7,4.2-46.1s12.6-25.1,12.6-31.4v-16.6c0-11.1-2.9-21.9-8.4-31.6l0,0
	C406.9,220.4,394.3,201.5,392.2,201.5z"/>
<path class="st0" d="M367.1,209.9c0,0-77.5,6.3-85.9,27.2S268.6,300,277,300s18.9,4.2,21,0s10.5-46.1,12.6-46.1s64.9-6.3,64.9-6.3
	S402.7,214.1,367.1,209.9z"/>
<path class="st3" d="M414.2,170.1c0,0,6.7-11.6,15-1.5s21.9-8.4,19.8-12.4s-9.4,0.2-22-3.9s-36.9-12.5-41,14.9s5.6,24.5,5.6,24.5
	s4.4-24.3,8.5-17.3l4,7l3.5,0.9L414.2,170.1z"/>
<circle class="st3" cx="651.3" cy="75.3" r="30.7"/>
<path class="st6" d="M641.5,98c0,0,1.6,28.6-1.6,28.6s19.8,13.5,19.8,13.5l14.3-7.9v-9.5c0,0-19-2.4-11.1-23S641.5,98,641.5,98z"/>
<polygon class="st6" points="574.8,411.5 572.5,435.3 580.4,437.7 586.7,431.4 589.1,411.5 "/>
<polygon class="st6" points="689.1,425 693.1,440.1 704.2,447.2 716.1,440.9 702.6,418.7 "/>
<circle class="st6" cx="649" cy="87.3" r="23"/>
<path class="st6" d="M635.2,173.4l-5.6-2.4c0,0-9.5-5.6-10.3-16.7s7.9-25.4,7.9-25.4l12.7-4l14.9,12.1l0.2,19.6L635.2,173.4z"/>
<path class="st6" d="M629.6,130.6l-3.2-1.6c0,0-15.9-0.8-17.5,18.3s-7.1,50.8-7.1,50.8s-12.7,22.2-11.9,46l-6.3,20.6
	c0,0-8.7,30.2,1.6,30.2s9.5-32.5,9.5-32.5s19-46,20.6-54s15.1-45.2,11.1-55.6S629.6,130.6,629.6,130.6z"/>
<path class="st6" d="M641.5,180.6v8.7c0,0,5.6,6.3,3.2,10.3s-4.8,11.9-4.8,11.9L651,229l37.3,3.2l7.4-49.7L641.5,180.6z"/>
<path class="st6" d="M676.4,125l6.3-3.2c0,0,13.5-9.5,24.6-11.1l34.1-23l22.2-53.2c0,0-0.8-28.6,5.6-25.4s5.6,27.8,5.6,27.8
	s-11.9,49.2-22.2,62.7c-10.3,13.5-47.6,35.7-47.6,35.7s-10.3,11.9-9.5,17.5S676.4,125,676.4,125z"/>
<path class="st3" d="M647.1,211.5c0,0-8.7-5.6-14.3,4s-15.9,11.9-22.2,40.5s-21.4,73.8-25.4,77s-20.6,36.5-11.1,83.3h15.9l13.5-67.5
	c0,0,43.7-54,46.8-76.2l14.3,83.3c0,0,0.8,31.7,12.7,46.8l12.7,30.2l16.7-7.9l-19-76.2c0,0,9.5-77,3.2-98.4l-0.9-28.1
	C689.8,222.3,663.7,223.4,647.1,211.5z"/>
<path class="st3" d="M580.4,431.4h-9.5c-1.6,0-14.3,10.3-8.7,15.9s14.3,15.9,14.3,15.9s31,3.9,31.7-1.6s-13.5-17.4-13.5-17.4
	l-4-12.7C590.7,431.4,582.8,422.6,580.4,431.4z"/>
<path class="st3" d="M706.6,439.3c0,0-13.5-0.8-15.9-1.6s-7.1,20.6,0,22.2s36.5,4,36.5,4s23-0.8,21.4-7.1s-32.5-19-32.5-19
	S712.1,429.8,706.6,439.3z"/>
<path class="st0" d="M643.9,124.2l-4-2.4l-4.8,4c0,0,14.3,9.5,11.1,18.3s-16.7,27-16.7,27s11.9,13.5,11.9,18.3c0,0,31-11.1,54,0
	c0,0,0-15.9,3.2-19s4.8-14.3-3.2-23.8c-5.6-7-10.6-14.4-15.1-22.2l-7.9-4.8l-4.1,1.3c0,0,8.1,9,0.1,9.8S647.9,129,643.9,124.2z"/>
<path class="st3" d="M673.7,23c-2.7,3-6.4,4.9-10.4,5.4c-6.9,1-1.5,11.9-1.5,11.9s-2-4,2-7.4S673.7,27.5,673.7,23z"/>
<circle class="st3" cx="660.4" cy="42.6" r="8.5"/>
<path class="st0" d="M670.3,51c-6.6-3.4-18-6.2-24-6l1.5-5.8c5.3,3.6,16.6,6.4,24,6L670.3,51z"/>
<path class="st3" d="M656.7,51.6c0,0-10.4,13.4-31.2,16.4s-4.5,35.7-4.5,35.7s-5.9-11.9,5.9-22.3S656.7,64.9,656.7,51.6z"/>
<path class="st3" d="M657.5,50.8c0,0,5.9,20.8,14.9,23.8s4.5,34.2-10.4,37.2c0,0,12.6-17.1,5.2-30.5S655.3,57.5,657.5,50.8z"/>
<rect x="742.7" y="15.9" class="st3" width="54.8" height="6.3"/>
<ellipse class="st3" cx="797.5" cy="19" rx="4.8" ry="19"/>
<ellipse class="st3" cx="742.7" cy="19" rx="4.8" ry="19"/>
<rect x="770.5" y="442.9" class="st3" width="54.8" height="6.3"/>
<ellipse class="st3" cx="825.2" cy="446.1" rx="4.8" ry="19"/>
<ellipse class="st3" cx="770.5" cy="446.1" rx="4.8" ry="19"/>
<path class="st2" d="M194,437.7c0-23.4-14.5-42.3-32.3-42.3c-11.2,0-21.1,7.5-26.9,18.9c-2-0.7-4.1-1-6.2-1
	c-5.4,0.1-10.6,2.3-14.5,6.1c-5.2-14.2-16.3-24-29.1-24c-12,0-22.5,8.6-28,21.3c-3.3-2.2-7.1-3.4-11.1-3.4
	c-13.7,0-24.8,14.6-24.8,32.5c0,6.1,1.3,12,3.9,17.5h162.6C191.8,455.5,194.1,446.7,194,437.7z"/>
<g>
	<g>
		<path d="M76.1,64.7c0,2.2-1.6,3.9-4.2,3.9c-2.4,0-4-1.7-4-3.9c0-2.3,1.7-4,4.1-4C74.5,60.7,76.1,62.4,76.1,64.7z M68,94.1V71h8.1
			v23.1H68z"/>
		<path d="M99.6,81.1h-10v6.2h11.2v6.7H81.4V62.4h18.7v6.7H89.5v5.4h10V81.1z"/>
		<path d="M111.7,71l1.6,3.5c0.5,1.2,1,2.4,1.5,3.5h0.1c0.4-1.2,0.9-2.4,1.3-3.6l1.4-3.4h8.6l-6.8,11.1l6.8,12h-9.1l-1.7-3.8
			c-0.5-1.1-1-2.2-1.3-3.3h-0.1c-0.4,1.2-0.9,2.3-1.3,3.3l-1.5,3.8h-8.6l6.9-11.7L102.7,71H111.7z"/>
		<path d="M135.5,85.5c0.2,1.9,2.6,3,5.5,3c2.1,0,4-0.3,5.8-0.9l1,5.5c-2.5,1-5.4,1.3-8.1,1.3c-7.7,0-12-4.3-12-11.6
			c0-6.1,3.8-12.4,11.4-12.4c6.8,0,10,4.9,10,11.7c0,1.6-0.1,2.8-0.3,3.4H135.5z M141.7,80c0-1.6-0.5-4.1-3-4.1
			c-2.3,0-3.2,2.4-3.3,4.1H141.7z"/>
		<path d="M152.8,78.7c0-3.3-0.1-5.6-0.2-7.7h6.9l0.3,3.9h0.2c1.2-3.2,3.8-4.4,5.6-4.4c0.8,0,1.1,0,1.6,0.1v7.7
			c-0.6-0.1-1.2-0.2-2-0.2c-2,0-3.7,0.8-4.3,2.8c-0.1,0.4-0.2,1-0.2,1.7v11.4h-8.1V78.7z"/>
		<path d="M186.9,93.7c-1.1,0.5-3.3,0.9-5.6,0.9c-7.2,0-11.8-4.4-11.8-11.8c0-6.8,4.5-12.2,12.9-12.2c1.6,0,3.4,0.3,4.8,0.7
			l-1.1,6.1c-0.7-0.3-1.7-0.5-3.2-0.5c-3,0-5.1,2.2-5.1,5.6c0,3.7,2.3,5.7,5.2,5.7c1.3,0,2.3-0.2,3.2-0.5L186.9,93.7z"/>
		<path d="M198.2,64.7c0,2.2-1.6,3.9-4.2,3.9c-2.4,0-4-1.7-4-3.9c0-2.3,1.7-4,4.1-4C196.5,60.7,198.1,62.4,198.2,64.7z M190,94.1V71
			h8.1v23.1H190z"/>
		<path d="M203.1,87.3c1.2,0.7,3.9,1.6,5.8,1.6c1.7,0,2.4-0.4,2.4-1.3c0-0.9-0.6-1.3-2.9-2.2c-4.8-1.8-6.2-4.5-6.2-6.9
			c0-4.5,3.7-7.9,9.4-7.9c2.6,0,4.9,0.6,6.3,1.2l-1.3,5.6c-1-0.5-2.9-1.2-4.6-1.2c-1.4,0-2.2,0.5-2.2,1.4c0,0.8,0.7,1.2,3.2,2.2
			c4.3,1.7,5.8,4.1,5.8,7.1c0,4.5-3.5,7.6-10,7.6c-2.9,0-5.6-0.6-7.2-1.5L203.1,87.3z"/>
		<path d="M229.3,85.5c0.2,1.9,2.6,3,5.5,3c2.1,0,4-0.3,5.8-0.9l1,5.5c-2.5,1-5.4,1.3-8.1,1.3c-7.7,0-12-4.3-12-11.6
			c0-6.1,3.8-12.4,11.4-12.4c6.8,0,10,4.9,10,11.7c0,1.6-0.1,2.8-0.3,3.4H229.3z M235.5,80c0-1.6-0.5-4.1-3-4.1
			c-2.3,0-3.2,2.4-3.3,4.1H235.5z"/>
	</g>
</g>
<rect x="71" y="97.4" class="st7" width="688.7" height="66.3"/>
<text transform="matrix(1 0 0 1 71.0176 108.7868)" class="st0 st8 st9 st10">Exercise your body and mind</text>
</svg>
